G04 ================== begin FILE IDENTIFICATION RECORD ==================*
G04 Layout Name:  C:/Users/user/Desktop/work/ex2_rlc/allegro/ex2_rlc.brd*
G04 Film Name:    BOTTOM*
G04 File Format:  Gerber RS274X*
G04 File Origin:  Cadence Allegro 17.2-S038*
G04 Origin Date:  Thu Jul 11 11:34:38 2019*
G04 *
G04 Layer:  ETCH/BOTTOM*
G04 Layer:  PIN/BOTTOM*
G04 Layer:  VIA CLASS/BOTTOM*
G04 *
G04 Offset:    (0.000 0.000)*
G04 Mirror:    No*
G04 Mode:      Positive*
G04 Rotation:  0*
G04 FullContactRelief:  No*
G04 UndefLineWidth:     0.000*
G04 ================== end FILE IDENTIFICATION RECORD ====================*
%FSLAX25Y25*MOMM*%
%IR0*IPPOS*OFA0.00000B0.00000*MIA0B0*SFA1.00000B1.00000*%
%ADD11C,1.524*%
%ADD12C,1.651*%
%ADD10C,.635*%
%ADD13C,.308*%
%ADD17C,1.91*%
%ADD15C,2.144*%
%ADD16C,2.272*%
%ADD14C,1.782*%
G75*
%LPD*%
G75*
G36*
G01X1638300Y1866900D02*
Y4191000D01*
X3276600D01*
Y4051300D01*
X4711700D01*
Y4152900D01*
X6451600D01*
Y3962400D01*
X6959600D01*
Y3086100D01*
X6451600D01*
Y1092200D01*
X4711700D01*
Y2463800D01*
X4279900D01*
Y1231900D01*
X2679700D01*
Y1866900D01*
X1638300D01*
G37*
%LPC*%
G75*
G54D17*
X5080000Y2603500D03*
G54D15*
X2032000Y2540000D03*
X6477000Y3619500D03*
G54D16*
X2032000D03*
X3048000D03*
X5080000D03*
G54D14*
X2032000Y2286000D03*
X6477000Y3365500D03*
%LPD*%
G75*
G54D10*
X1270000Y762000D03*
Y4699000D03*
X7239000Y762000D03*
Y4699000D03*
G54D11*
X2032000Y2286000D03*
Y2540000D03*
X6477000Y3365500D03*
Y3619500D03*
G54D12*
X2032000D03*
X3048000D03*
X5080000Y2603500D03*
Y3619500D03*
G54D13*
G01X2032000Y2191800D02*
Y2286000D01*
G01D02*
Y2380200D01*
G01X1937800Y2286000D02*
X2032000D01*
G01D02*
X2126200D01*
G01X5080000Y2502900D02*
Y2603500D01*
G01D02*
Y2704100D01*
G01X4979400Y2603500D02*
X5080000D01*
G01D02*
X5180600D01*
G01X6382800Y3365500D02*
X6477000D01*
G01Y3271300D02*
Y3365500D01*
G01D02*
Y3459700D01*
G01Y3365500D02*
X6571200D01*
M02*
