G04 ================== begin FILE IDENTIFICATION RECORD ==================*
G04 Layout Name:  C:/Users/user/Desktop/work/ex2_rlc/allegro/ex2_rlc.brd*
G04 Film Name:    DrillDraw*
G04 File Format:  Gerber RS274X*
G04 File Origin:  Cadence Allegro 17.2-S038*
G04 Origin Date:  Thu Jul 11 11:34:38 2019*
G04 *
G04 Layer:  MANUFACTURING/NCLEGEND-1-2*
G04 Layer:  BOARD GEOMETRY/DESIGN_OUTLINE*
G04 *
G04 Offset:    (0.000 0.000)*
G04 Mirror:    No*
G04 Mode:      Positive*
G04 Rotation:  0*
G04 FullContactRelief:  No*
G04 UndefLineWidth:     0.100*
G04 ================== end FILE IDENTIFICATION RECORD ====================*
%FSLAX25Y25*MOMM*%
%IR0*IPPOS*OFA0.00000B0.00000*MIA0B0*SFA1.00000B1.00000*%
%AMMACRO12*
1,1,.1,-.508,.3175*
20,1,.1,-.508,.3175,-.500282,.405713,0.0*
1,1,.1,-.500282,.405713*
20,1,.1,-.500282,.405713,-.477364,.491246,0.0*
1,1,.1,-.477364,.491246*
20,1,.1,-.477364,.491246,-.439941,.5715,0.0*
1,1,.1,-.439941,.5715*
20,1,.1,-.439941,.5715,-.389151,.644036,0.0*
1,1,.1,-.389151,.644036*
20,1,.1,-.389151,.644036,-.326536,.706651,0.0*
1,1,.1,-.326536,.706651*
20,1,.1,-.326536,.706651,-.254,.757441,0.0*
1,1,.1,-.254,.757441*
20,1,.1,-.254,.757441,-.173746,.794864,0.0*
1,1,.1,-.173746,.794864*
20,1,.1,-.173746,.794864,-.088213,.817782,0.0*
1,1,.1,-.088213,.817782*
20,1,.1,-.088213,.817782,0.0,.8255,0.0*
1,1,.1,0.0,.8255*
20,1,.1,0.0,.8255,.088213,.817782,0.0*
1,1,.1,.088213,.817782*
20,1,.1,.088213,.817782,.173746,.794864,0.0*
1,1,.1,.173746,.794864*
20,1,.1,.173746,.794864,.254,.757441,0.0*
1,1,.1,.254,.757441*
20,1,.1,.254,.757441,.326536,.706651,0.0*
1,1,.1,.326536,.706651*
20,1,.1,.326536,.706651,.389151,.644036,0.0*
1,1,.1,.389151,.644036*
20,1,.1,.389151,.644036,.439941,.5715,0.0*
1,1,.1,.439941,.5715*
20,1,.1,.439941,.5715,.477364,.491246,0.0*
1,1,.1,.477364,.491246*
20,1,.1,.477364,.491246,.500282,.405713,0.0*
1,1,.1,.500282,.405713*
20,1,.1,.500282,.405713,.508,.3175,0.0*
1,1,.1,.508,.3175*
20,1,.1,.508,.3175,.508,-.3175,0.0*
1,1,.1,.508,-.3175*
20,1,.1,.508,-.3175,.500282,-.405713,0.0*
1,1,.1,.500282,-.405713*
20,1,.1,.500282,-.405713,.477364,-.491246,0.0*
1,1,.1,.477364,-.491246*
20,1,.1,.477364,-.491246,.439941,-.5715,0.0*
1,1,.1,.439941,-.5715*
20,1,.1,.439941,-.5715,.389151,-.644036,0.0*
1,1,.1,.389151,-.644036*
20,1,.1,.389151,-.644036,.326536,-.706651,0.0*
1,1,.1,.326536,-.706651*
20,1,.1,.326536,-.706651,.254,-.757441,0.0*
1,1,.1,.254,-.757441*
20,1,.1,.254,-.757441,.173746,-.794864,0.0*
1,1,.1,.173746,-.794864*
20,1,.1,.173746,-.794864,.088213,-.817782,0.0*
1,1,.1,.088213,-.817782*
20,1,.1,.088213,-.817782,0.0,-.8255,0.0*
1,1,.1,0.0,-.8255*
20,1,.1,0.0,-.8255,-.088213,-.817782,0.0*
1,1,.1,-.088213,-.817782*
20,1,.1,-.088213,-.817782,-.173746,-.794864,0.0*
1,1,.1,-.173746,-.794864*
20,1,.1,-.173746,-.794864,-.254,-.757441,0.0*
1,1,.1,-.254,-.757441*
20,1,.1,-.254,-.757441,-.326536,-.706651,0.0*
1,1,.1,-.326536,-.706651*
20,1,.1,-.326536,-.706651,-.389151,-.644036,0.0*
1,1,.1,-.389151,-.644036*
20,1,.1,-.389151,-.644036,-.439941,-.5715,0.0*
1,1,.1,-.439941,-.5715*
20,1,.1,-.439941,-.5715,-.477364,-.491246,0.0*
1,1,.1,-.477364,-.491246*
20,1,.1,-.477364,-.491246,-.500282,-.405713,0.0*
1,1,.1,-.500282,-.405713*
20,1,.1,-.500282,-.405713,-.508,-.3175,0.0*
1,1,.1,-.508,-.3175*
20,1,.1,-.508,-.3175,-.508,.3175,0.0*
1,1,.1,-.508,.3175*
%
%ADD12MACRO12*%
%AMMACRO11*
1,1,.1,.635,0.0*
20,1,.1,.635,0.0,.3175,.549926,0.0*
1,1,.1,.3175,.549926*
20,1,.1,.3175,.549926,-.3175,.549926,0.0*
1,1,.1,-.3175,.549926*
20,1,.1,-.3175,.549926,-.635,0.0,0.0*
1,1,.1,-.635,0.0*
20,1,.1,-.635,0.0,-.3175,-.549926,0.0*
1,1,.1,-.3175,-.549926*
20,1,.1,-.3175,-.549926,.3175,-.549926,0.0*
1,1,.1,.3175,-.549926*
20,1,.1,.3175,-.549926,.635,0.0,0.0*
1,1,.1,.635,0.0*
%
%ADD11MACRO11*%
%AMMACRO10*
1,1,.1,-.666,-.952*
20,1,.1,-.666,-.952,.667,.953,0.0*
1,1,.1,.667,.953*
1,1,.1,-.666,.953*
20,1,.1,-.666,.953,.667,-.952,0.0*
1,1,.1,.667,-.952*
%
%ADD10MACRO10*%
%ADD13C,.1*%
G75*
%LPD*%
G75*
G54D10*
X1270000Y762000D03*
Y4699000D03*
X7239000Y762000D03*
Y4699000D03*
X9269500Y620000D03*
G54D11*
X2032000Y2286000D03*
Y2540000D03*
X6477000Y3365500D03*
Y3619500D03*
X9269500Y1890000D03*
G54D12*
X2032000Y3619500D03*
X3048000D03*
X5080000Y2603500D03*
Y3619500D03*
X9269500Y1255000D03*
G54D13*
G01X762000Y254000D02*
Y5254000D01*
X7762000D01*
Y254000D01*
X762000D01*
G01X8128000Y302500D02*
Y4127500D01*
X20723900D01*
Y302500D01*
X8128000D01*
G01Y937500D02*
X20723900D01*
G01X8128000Y1572500D02*
X20723900D01*
G01X8407400Y2366200D02*
Y2683700D01*
X8557000D01*
G01X8501900Y2530200D02*
X8407400D01*
G01X8749900Y2683700D02*
X8844300D01*
G01X8797100D02*
Y2366200D01*
G01X8749900D02*
X8844300D01*
G01X9135600Y2524900D02*
X9214400D01*
Y2429700D01*
X9190700Y2397900D01*
X9163200Y2376800D01*
X9123800Y2366200D01*
X9084400Y2376800D01*
X9056900Y2397900D01*
X9033300Y2429700D01*
X9017500Y2466700D01*
X9009600Y2509100D01*
Y2546100D01*
X9017500Y2577900D01*
X9033300Y2614900D01*
X9056900Y2646700D01*
X9080500Y2667800D01*
X9112000Y2683700D01*
X9139600D01*
X9171000Y2673100D01*
X9194700Y2651900D01*
G01X9340300Y2683700D02*
Y2456200D01*
X9356000Y2408500D01*
X9387500Y2376800D01*
X9426900Y2366200D01*
X9466300Y2376800D01*
X9497800Y2408500D01*
X9513500Y2456200D01*
Y2683700D01*
G01X9663100Y2366200D02*
Y2683700D01*
X9761500D01*
X9793000Y2667800D01*
X9812700Y2646700D01*
X9820500Y2604300D01*
X9812700Y2562000D01*
X9789000Y2535500D01*
X9761500Y2519700D01*
X9663100D01*
G01X9761500D02*
X9820500Y2366200D01*
G01X10135400D02*
X9978000D01*
Y2683700D01*
X10135400D01*
G01X10072400Y2530200D02*
X9978000D01*
G01X8128000Y2207500D02*
X20723900D01*
G01X8128000Y2842500D02*
X20723900D01*
G01X8128000Y3477500D02*
X20723900D01*
G01X10076400Y3001200D02*
X10174800Y3318700D01*
X10273200Y3001200D01*
G01X10237800Y3112300D02*
X10111800D01*
G01X10411000Y3318700D02*
Y3001200D01*
X10568400D01*
G01X10725900Y3318700D02*
Y3001200D01*
X10883300D01*
G01X11347800Y3318700D02*
Y3091200D01*
X11363500Y3043500D01*
X11395000Y3011800D01*
X11434400Y3001200D01*
X11473800Y3011800D01*
X11505300Y3043500D01*
X11521000Y3091200D01*
Y3318700D01*
G01X11658800Y3001200D02*
Y3318700D01*
X11839800Y3001200D01*
Y3318700D01*
G01X12017000D02*
X12111400D01*
G01X12064200D02*
Y3001200D01*
G01X12017000D02*
X12111400D01*
G01X12379100Y3318700D02*
Y3001200D01*
G01X12288600Y3318700D02*
X12469600D01*
G01X12611300Y3043500D02*
X12642800Y3017100D01*
X12678300Y3001200D01*
X12709700D01*
X12741200Y3017100D01*
X12764900Y3043500D01*
X12776700Y3080600D01*
X12768800Y3117600D01*
X12749100Y3149400D01*
X12713700Y3170500D01*
X12666400Y3181100D01*
X12638900Y3202300D01*
X12627100Y3239300D01*
X12635000Y3276400D01*
X12654600Y3302800D01*
X12682200Y3318700D01*
X12709700D01*
X12737300Y3308100D01*
X12760900Y3281700D01*
G01X13225400Y3001200D02*
X13323800Y3318700D01*
X13422200Y3001200D01*
G01X13386800Y3112300D02*
X13260800D01*
G01X13560000Y3001200D02*
Y3318700D01*
X13658400D01*
X13689900Y3302800D01*
X13709600Y3281700D01*
X13717400Y3239300D01*
X13709600Y3197000D01*
X13685900Y3170500D01*
X13658400Y3154700D01*
X13560000D01*
G01X13658400D02*
X13717400Y3001200D01*
G01X14032300D02*
X13874900D01*
Y3318700D01*
X14032300D01*
G01X13969300Y3165200D02*
X13874900D01*
G01X14536200Y3318700D02*
X14630600D01*
G01X14583400D02*
Y3001200D01*
G01X14536200D02*
X14630600D01*
G01X14807800D02*
Y3318700D01*
X14988800Y3001200D01*
Y3318700D01*
G01X15425700Y3001200D02*
Y3318700D01*
X15528100Y3054100D01*
X15630500Y3318700D01*
Y3001200D01*
G01X15795800Y3318700D02*
X15890200D01*
G01X15843000D02*
Y3001200D01*
G01X15795800D02*
X15890200D01*
G01X16079200Y3318700D02*
Y3001200D01*
X16236600D01*
G01X16394100Y3318700D02*
Y3001200D01*
X16551500D01*
G01X16740500Y3318700D02*
X16834900D01*
G01X16787700D02*
Y3001200D01*
G01X16740500D02*
X16834900D01*
G01X17000200D02*
Y3318700D01*
X17102600Y3054100D01*
X17205000Y3318700D01*
Y3001200D01*
G01X17496200D02*
X17338800D01*
Y3318700D01*
X17496200D01*
G01X17433200Y3165200D02*
X17338800D01*
G01X17732400Y3318700D02*
Y3001200D01*
G01X17641900Y3318700D02*
X17822900D01*
G01X18126000Y3001200D02*
X17968600D01*
Y3318700D01*
X18126000D01*
G01X18063000Y3165200D02*
X17968600D01*
G01X18283500Y3001200D02*
Y3318700D01*
X18381900D01*
X18413400Y3302800D01*
X18433100Y3281700D01*
X18440900Y3239300D01*
X18433100Y3197000D01*
X18409400Y3170500D01*
X18381900Y3154700D01*
X18283500D01*
G01X18381900D02*
X18440900Y3001200D01*
G01X18594400Y3043500D02*
X18625900Y3017100D01*
X18661400Y3001200D01*
X18692800D01*
X18724300Y3017100D01*
X18748000Y3043500D01*
X18759800Y3080600D01*
X18751900Y3117600D01*
X18732200Y3149400D01*
X18696800Y3170500D01*
X18649500Y3181100D01*
X18622000Y3202300D01*
X18610200Y3239300D01*
X18618100Y3276400D01*
X18637700Y3302800D01*
X18665300Y3318700D01*
X18692800D01*
X18720400Y3308100D01*
X18744000Y3281700D01*
G01X10411000Y2842500D02*
Y302500D01*
G01X11005400Y2366200D02*
Y2683700D01*
X11155000D01*
G01X11099900Y2530200D02*
X11005400D01*
G01X11347900Y2683700D02*
X11442300D01*
G01X11395100D02*
Y2366200D01*
G01X11347900D02*
X11442300D01*
G01X11619500D02*
Y2683700D01*
X11800500Y2366200D01*
Y2683700D01*
G01X11977700D02*
X12072100D01*
G01X12024900D02*
Y2366200D01*
G01X11977700D02*
X12072100D01*
G01X12257100Y2408500D02*
X12288600Y2382100D01*
X12324100Y2366200D01*
X12355500D01*
X12387000Y2382100D01*
X12410700Y2408500D01*
X12422500Y2445600D01*
X12414600Y2482600D01*
X12394900Y2514400D01*
X12359500Y2535500D01*
X12312200Y2546100D01*
X12284700Y2567300D01*
X12272900Y2604300D01*
X12280800Y2641400D01*
X12300400Y2667800D01*
X12328000Y2683700D01*
X12355500D01*
X12383100Y2673100D01*
X12406700Y2646700D01*
G01X12572000Y2366200D02*
Y2683700D01*
G01X12737400D02*
Y2366200D01*
G01Y2524900D02*
X12572000D01*
G01X13048300Y2366200D02*
X12890900D01*
Y2683700D01*
X13048300D01*
G01X12985300Y2530200D02*
X12890900D01*
G01X13197900Y2366200D02*
Y2683700D01*
X13276600D01*
X13308100Y2667800D01*
X13331700Y2646700D01*
X13351400Y2614900D01*
X13367200Y2577900D01*
X13371100Y2524900D01*
X13367200Y2472000D01*
X13351400Y2435000D01*
X13331700Y2403200D01*
X13308100Y2382100D01*
X13276600Y2366200D01*
X13197900D01*
G01X13481300Y2260400D02*
X13717500D01*
G01X13831600Y2408500D02*
X13863100Y2382100D01*
X13898600Y2366200D01*
X13930000D01*
X13961500Y2382100D01*
X13985200Y2408500D01*
X13997000Y2445600D01*
X13989100Y2482600D01*
X13969400Y2514400D01*
X13934000Y2535500D01*
X13886700Y2546100D01*
X13859200Y2567300D01*
X13847400Y2604300D01*
X13855300Y2641400D01*
X13874900Y2667800D01*
X13902500Y2683700D01*
X13930000D01*
X13957600Y2673100D01*
X13981200Y2646700D01*
G01X14182000Y2683700D02*
X14276400D01*
G01X14229200D02*
Y2366200D01*
G01X14182000D02*
X14276400D01*
G01X14469300Y2683700D02*
X14618900D01*
X14469300Y2366200D01*
X14618900D01*
G01X14937700D02*
X14780300D01*
Y2683700D01*
X14937700D01*
G01X14874700Y2530200D02*
X14780300D01*
G01X10403100Y3651200D02*
Y3968700D01*
X10481800D01*
X10513300Y3952800D01*
X10536900Y3931700D01*
X10556600Y3899900D01*
X10572400Y3862900D01*
X10576300Y3809900D01*
X10572400Y3757000D01*
X10556600Y3720000D01*
X10536900Y3688200D01*
X10513300Y3667100D01*
X10481800Y3651200D01*
X10403100D01*
G01X10725900D02*
Y3968700D01*
X10824300D01*
X10855800Y3952800D01*
X10875500Y3931700D01*
X10883300Y3889300D01*
X10875500Y3847000D01*
X10851800Y3820500D01*
X10824300Y3804700D01*
X10725900D01*
G01X10824300D02*
X10883300Y3651200D01*
G01X11072300Y3968700D02*
X11166700D01*
G01X11119500D02*
Y3651200D01*
G01X11072300D02*
X11166700D01*
G01X11355700Y3968700D02*
Y3651200D01*
X11513100D01*
G01X11670600Y3968700D02*
Y3651200D01*
X11828000D01*
G01X12465700Y3942200D02*
X12442100Y3958100D01*
X12414500Y3968700D01*
X12383000D01*
X12347600Y3952800D01*
X12320100Y3926400D01*
X12300400Y3894600D01*
X12284600Y3841700D01*
X12280700Y3794100D01*
X12288600Y3746400D01*
X12300400Y3714700D01*
X12324000Y3682900D01*
X12351500Y3661800D01*
X12379100Y3651200D01*
X12406700D01*
X12434200Y3661800D01*
X12457800Y3677700D01*
X12477500Y3698800D01*
G01X12611300Y3651200D02*
Y3968700D01*
G01X12776700D02*
Y3651200D01*
G01Y3809900D02*
X12611300D01*
G01X12910500Y3651200D02*
X13008900Y3968700D01*
X13107300Y3651200D01*
G01X13071900Y3762300D02*
X12945900D01*
G01X13245100Y3651200D02*
Y3968700D01*
X13343500D01*
X13375000Y3952800D01*
X13394700Y3931700D01*
X13402500Y3889300D01*
X13394700Y3847000D01*
X13371000Y3820500D01*
X13343500Y3804700D01*
X13245100D01*
G01X13343500D02*
X13402500Y3651200D01*
G01X13638700Y3968700D02*
Y3651200D01*
G01X13548200Y3968700D02*
X13729200D01*
G01X13953600Y3640600D02*
X13945700Y3645900D01*
Y3656500D01*
X13953600Y3661800D01*
X13961500Y3656500D01*
Y3645900D01*
X13953600Y3640600D01*
G01Y3783500D02*
X13945700Y3788800D01*
Y3799400D01*
X13953600Y3804700D01*
X13961500Y3799400D01*
Y3788800D01*
X13953600Y3783500D01*
G01X14583400Y3968700D02*
Y3651200D01*
G01X14492900Y3968700D02*
X14673900D01*
G01X14898300Y3651200D02*
X14866800Y3656500D01*
X14839300Y3677700D01*
X14815600Y3709400D01*
X14799900Y3746400D01*
X14792000Y3788800D01*
Y3831100D01*
X14799900Y3873500D01*
X14815600Y3910500D01*
X14839300Y3942200D01*
X14866800Y3963400D01*
X14898300Y3968700D01*
X14929800Y3963400D01*
X14957300Y3942200D01*
X14981000Y3910500D01*
X14996700Y3873500D01*
X15004600Y3831100D01*
Y3788800D01*
X14996700Y3746400D01*
X14981000Y3709400D01*
X14957300Y3677700D01*
X14929800Y3656500D01*
X14898300Y3651200D01*
G01X15134500D02*
Y3968700D01*
X15228900D01*
X15260400Y3952800D01*
X15284100Y3915800D01*
X15291900Y3873500D01*
X15284100Y3831100D01*
X15264400Y3799400D01*
X15228900Y3783500D01*
X15134500D01*
G01X15843000Y3968700D02*
Y3651200D01*
G01X15787900Y3862900D02*
X15898100D01*
G01X16157900Y3651200D02*
X16134300Y3656500D01*
X16110700Y3677700D01*
X16094900Y3714700D01*
X16087000Y3757000D01*
X16094900Y3799400D01*
X16110700Y3836400D01*
X16134300Y3857600D01*
X16157900Y3862900D01*
X16181500Y3857600D01*
X16205100Y3836400D01*
X16220900Y3799400D01*
X16224800Y3757000D01*
X16220900Y3714700D01*
X16205100Y3677700D01*
X16181500Y3656500D01*
X16157900Y3651200D01*
G01X16819200Y3820500D02*
X16834900Y3836400D01*
X16846700Y3862900D01*
X16854600Y3899900D01*
X16846700Y3931700D01*
X16831000Y3952800D01*
X16803400Y3968700D01*
X16697200D01*
Y3651200D01*
X16827100D01*
X16854600Y3672400D01*
X16870400Y3704100D01*
X16878200Y3741200D01*
X16870400Y3778200D01*
X16846700Y3809900D01*
X16819200Y3820500D01*
X16697200D01*
G01X17102600Y3651200D02*
X17071100Y3656500D01*
X17043600Y3677700D01*
X17019900Y3709400D01*
X17004200Y3746400D01*
X16996300Y3788800D01*
Y3831100D01*
X17004200Y3873500D01*
X17019900Y3910500D01*
X17043600Y3942200D01*
X17071100Y3963400D01*
X17102600Y3968700D01*
X17134100Y3963400D01*
X17161600Y3942200D01*
X17185300Y3910500D01*
X17201000Y3873500D01*
X17208900Y3831100D01*
Y3788800D01*
X17201000Y3746400D01*
X17185300Y3709400D01*
X17161600Y3677700D01*
X17134100Y3656500D01*
X17102600Y3651200D01*
G01X17417500Y3968700D02*
Y3651200D01*
G01X17327000Y3968700D02*
X17508000D01*
G01X17732400D02*
Y3651200D01*
G01X17641900Y3968700D02*
X17822900D01*
G01X18047300Y3651200D02*
X18015800Y3656500D01*
X17988300Y3677700D01*
X17964600Y3709400D01*
X17948900Y3746400D01*
X17941000Y3788800D01*
Y3831100D01*
X17948900Y3873500D01*
X17964600Y3910500D01*
X17988300Y3942200D01*
X18015800Y3963400D01*
X18047300Y3968700D01*
X18078800Y3963400D01*
X18106300Y3942200D01*
X18130000Y3910500D01*
X18145700Y3873500D01*
X18153600Y3831100D01*
Y3788800D01*
X18145700Y3746400D01*
X18130000Y3709400D01*
X18106300Y3677700D01*
X18078800Y3656500D01*
X18047300Y3651200D01*
G01X18259800D02*
Y3968700D01*
X18362200Y3704100D01*
X18464600Y3968700D01*
Y3651200D01*
G01X12339800Y1096200D02*
Y1413700D01*
X12292600Y1350200D01*
G01Y1096200D02*
X12387000D01*
G01X12654700Y1085600D02*
X12646800Y1090900D01*
Y1101500D01*
X12654700Y1106800D01*
X12662600Y1101500D01*
Y1090900D01*
X12654700Y1085600D01*
G01X12969600Y1413700D02*
X12938100Y1403100D01*
X12914500Y1376700D01*
X12898700Y1344900D01*
X12886900Y1302600D01*
X12883000Y1254900D01*
X12886900Y1207300D01*
X12898700Y1165000D01*
X12914500Y1133200D01*
X12938100Y1106800D01*
X12969600Y1096200D01*
X13001100Y1106800D01*
X13024700Y1133200D01*
X13040500Y1165000D01*
X13052300Y1207300D01*
X13056200Y1254900D01*
X13052300Y1302600D01*
X13040500Y1344900D01*
X13024700Y1376700D01*
X13001100Y1403100D01*
X12969600Y1413700D01*
G01X13209700Y1228500D02*
X13237300Y1265500D01*
X13260900Y1286700D01*
X13292400Y1297300D01*
X13319900Y1286700D01*
X13339600Y1265500D01*
X13355400Y1233800D01*
X13359300Y1196700D01*
X13355400Y1165000D01*
X13339600Y1133200D01*
X13316000Y1106800D01*
X13288400Y1096200D01*
X13256900Y1106800D01*
X13229400Y1138500D01*
X13213600Y1186200D01*
X13209700Y1239100D01*
X13217600Y1307900D01*
X13229400Y1344900D01*
X13249100Y1381900D01*
X13276600Y1408400D01*
X13304200Y1413700D01*
X13331700Y1403100D01*
X13351400Y1376700D01*
G01X13591500Y1096200D02*
X13599400Y1165000D01*
X13611200Y1223200D01*
X13627000Y1276100D01*
X13646600Y1334300D01*
X13678100Y1413700D01*
X13520700D01*
G01X12253200Y524700D02*
X12276800Y487700D01*
X12308300Y466500D01*
X12343700Y461200D01*
X12375200Y466500D01*
X12406700Y492900D01*
X12426400Y524700D01*
X12430300Y556400D01*
X12422500Y593500D01*
X12394900Y619900D01*
X12367400Y630500D01*
X12331900D01*
G01X12367400D02*
X12391000Y646400D01*
X12410700Y672900D01*
X12418500Y704600D01*
X12410700Y736400D01*
X12391000Y762800D01*
X12355500Y778700D01*
X12320100Y773400D01*
X12284700Y752200D01*
G01X12654700Y450600D02*
X12646800Y455900D01*
Y466500D01*
X12654700Y471800D01*
X12662600Y466500D01*
Y455900D01*
X12654700Y450600D01*
G01X12969600Y461200D02*
Y778700D01*
X12922400Y715200D01*
G01Y461200D02*
X13016800D01*
G01X13276600D02*
X13284500Y530000D01*
X13296300Y588200D01*
X13312100Y641100D01*
X13331700Y699300D01*
X13363200Y778700D01*
X13205800D01*
G01X13512800Y508800D02*
X13536400Y482400D01*
X13564000Y466500D01*
X13599400Y461200D01*
X13634800Y471800D01*
X13662400Y492900D01*
X13682100Y530000D01*
X13686000Y572300D01*
X13678100Y614700D01*
X13658400Y641100D01*
X13630900Y662300D01*
X13603300Y667600D01*
X13575800Y662300D01*
X13540400Y641100D01*
X13552200Y778700D01*
X13658400D01*
G01X12339800Y2048700D02*
X12308300Y2038100D01*
X12284700Y2011700D01*
X12268900Y1979900D01*
X12257100Y1937600D01*
X12253200Y1889900D01*
X12257100Y1842300D01*
X12268900Y1800000D01*
X12284700Y1768200D01*
X12308300Y1741800D01*
X12339800Y1731200D01*
X12371300Y1741800D01*
X12394900Y1768200D01*
X12410700Y1800000D01*
X12422500Y1842300D01*
X12426400Y1889900D01*
X12422500Y1937600D01*
X12410700Y1979900D01*
X12394900Y2011700D01*
X12371300Y2038100D01*
X12339800Y2048700D01*
G01X12654700Y1720600D02*
X12646800Y1725900D01*
Y1736500D01*
X12654700Y1741800D01*
X12662600Y1736500D01*
Y1725900D01*
X12654700Y1720600D01*
G01X12902700Y1768200D02*
X12930200Y1741800D01*
X12961700Y1731200D01*
X12993200Y1741800D01*
X13020800Y1773500D01*
X13040500Y1821200D01*
X13048300Y1868800D01*
Y1927000D01*
X13040500Y1974600D01*
X13020800Y2016900D01*
X12997200Y2038100D01*
X12969600Y2048700D01*
X12938100Y2038100D01*
X12914500Y2016900D01*
X12898700Y1985200D01*
X12890900Y1942900D01*
X12898700Y1905800D01*
X12918400Y1868800D01*
X12942000Y1847600D01*
X12969600Y1842300D01*
X13001100Y1852900D01*
X13024700Y1879400D01*
X13048300Y1927000D01*
G01X13284500Y1731200D02*
Y2048700D01*
X13237300Y1985200D01*
G01Y1731200D02*
X13331700D01*
G01X13646600D02*
Y2048700D01*
X13501000Y1821200D01*
X13697800D01*
G01X15528100Y2842500D02*
Y302500D01*
G01X16276000Y1096200D02*
Y1413700D01*
X16370400D01*
X16401900Y1397800D01*
X16425600Y1360800D01*
X16433400Y1318500D01*
X16425600Y1276100D01*
X16405900Y1244400D01*
X16370400Y1228500D01*
X16276000D01*
G01X16590900Y1413700D02*
Y1096200D01*
X16748300D01*
G01X16886100D02*
X16984500Y1413700D01*
X17082900Y1096200D01*
G01X17047500Y1207300D02*
X16921500D01*
G01X17299400Y1413700D02*
Y1096200D01*
G01X17208900Y1413700D02*
X17389900D01*
G01X17693000Y1096200D02*
X17535600D01*
Y1413700D01*
X17693000D01*
G01X17630000Y1260200D02*
X17535600D01*
G01X17842600Y1096200D02*
Y1413700D01*
X17921300D01*
X17952800Y1397800D01*
X17976400Y1376700D01*
X17996100Y1344900D01*
X18011900Y1307900D01*
X18015800Y1254900D01*
X18011900Y1202000D01*
X17996100Y1165000D01*
X17976400Y1133200D01*
X17952800Y1112100D01*
X17921300Y1096200D01*
X17842600D01*
G01X15634400Y461200D02*
Y778700D01*
X15815400Y461200D01*
Y778700D01*
G01X16039800Y461200D02*
X16008300Y466500D01*
X15980800Y487700D01*
X15957100Y519400D01*
X15941400Y556400D01*
X15933500Y598800D01*
Y641100D01*
X15941400Y683500D01*
X15957100Y720500D01*
X15980800Y752200D01*
X16008300Y773400D01*
X16039800Y778700D01*
X16071300Y773400D01*
X16098800Y752200D01*
X16122500Y720500D01*
X16138200Y683500D01*
X16146100Y641100D01*
Y598800D01*
X16138200Y556400D01*
X16122500Y519400D01*
X16098800Y487700D01*
X16071300Y466500D01*
X16039800Y461200D01*
G01X16264200D02*
Y778700D01*
X16445200Y461200D01*
Y778700D01*
G01X16618400Y567000D02*
X16720800D01*
G01X16905800Y461200D02*
Y778700D01*
X17000200D01*
X17031700Y762800D01*
X17055400Y725800D01*
X17063200Y683500D01*
X17055400Y641100D01*
X17035700Y609400D01*
X17000200Y593500D01*
X16905800D01*
G01X17220700Y778700D02*
Y461200D01*
X17378100D01*
G01X17515900D02*
X17614300Y778700D01*
X17712700Y461200D01*
G01X17677300Y572300D02*
X17551300D01*
G01X17929200Y778700D02*
Y461200D01*
G01X17838700Y778700D02*
X18019700D01*
G01X18322800Y461200D02*
X18165400D01*
Y778700D01*
X18322800D01*
G01X18259800Y625200D02*
X18165400D01*
G01X18472400Y461200D02*
Y778700D01*
X18551100D01*
X18582600Y762800D01*
X18606200Y741700D01*
X18625900Y709900D01*
X18641700Y672900D01*
X18645600Y619900D01*
X18641700Y567000D01*
X18625900Y530000D01*
X18606200Y498200D01*
X18582600Y477100D01*
X18551100Y461200D01*
X18472400D01*
G01X16276000Y1731200D02*
Y2048700D01*
X16370400D01*
X16401900Y2032800D01*
X16425600Y1995800D01*
X16433400Y1953500D01*
X16425600Y1911100D01*
X16405900Y1879400D01*
X16370400Y1863500D01*
X16276000D01*
G01X16590900Y2048700D02*
Y1731200D01*
X16748300D01*
G01X16886100D02*
X16984500Y2048700D01*
X17082900Y1731200D01*
G01X17047500Y1842300D02*
X16921500D01*
G01X17299400Y2048700D02*
Y1731200D01*
G01X17208900Y2048700D02*
X17389900D01*
G01X17693000Y1731200D02*
X17535600D01*
Y2048700D01*
X17693000D01*
G01X17630000Y1895200D02*
X17535600D01*
G01X17842600Y1731200D02*
Y2048700D01*
X17921300D01*
X17952800Y2032800D01*
X17976400Y2011700D01*
X17996100Y1979900D01*
X18011900Y1942900D01*
X18015800Y1889900D01*
X18011900Y1837000D01*
X17996100Y1800000D01*
X17976400Y1768200D01*
X17952800Y1747100D01*
X17921300Y1731200D01*
X17842600D01*
G01X16276000Y2366200D02*
Y2683700D01*
X16370400D01*
X16401900Y2667800D01*
X16425600Y2630800D01*
X16433400Y2588500D01*
X16425600Y2546100D01*
X16405900Y2514400D01*
X16370400Y2498500D01*
X16276000D01*
G01X16590900Y2683700D02*
Y2366200D01*
X16748300D01*
G01X16886100D02*
X16984500Y2683700D01*
X17082900Y2366200D01*
G01X17047500Y2477300D02*
X16921500D01*
G01X17299400Y2683700D02*
Y2366200D01*
G01X17208900Y2683700D02*
X17389900D01*
G01X17693000Y2366200D02*
X17535600D01*
Y2683700D01*
X17693000D01*
G01X17630000Y2530200D02*
X17535600D01*
G01X17842600Y2366200D02*
Y2683700D01*
X17921300D01*
X17952800Y2667800D01*
X17976400Y2646700D01*
X17996100Y2614900D01*
X18011900Y2577900D01*
X18015800Y2524900D01*
X18011900Y2472000D01*
X17996100Y2435000D01*
X17976400Y2403200D01*
X17952800Y2382100D01*
X17921300Y2366200D01*
X17842600D01*
G01X18755800Y2842500D02*
Y302500D01*
G01X19424900Y2366200D02*
X19393400Y2371500D01*
X19365900Y2392700D01*
X19342200Y2424400D01*
X19326500Y2461400D01*
X19318600Y2503800D01*
Y2546100D01*
X19326500Y2588500D01*
X19342200Y2625500D01*
X19365900Y2657200D01*
X19393400Y2678400D01*
X19424900Y2683700D01*
X19456400Y2678400D01*
X19483900Y2657200D01*
X19507600Y2625500D01*
X19523300Y2588500D01*
X19531200Y2546100D01*
Y2503800D01*
X19523300Y2461400D01*
X19507600Y2424400D01*
X19483900Y2392700D01*
X19456400Y2371500D01*
X19424900Y2366200D01*
G01X19456400Y2450900D02*
X19503600Y2366200D01*
G01X19739800Y2683700D02*
Y2366200D01*
G01X19649300Y2683700D02*
X19830300D01*
G01X20054700Y2366200D02*
Y2509100D01*
X19976000Y2683700D01*
G01X20133400D02*
X20054700Y2509100D01*
G01X19787000Y1096200D02*
Y1413700D01*
X19641400Y1186200D01*
X19838200D01*
G01X19787000Y461200D02*
Y778700D01*
X19641400Y551200D01*
X19838200D01*
G01X19787000Y1731200D02*
Y2048700D01*
X19641400Y1821200D01*
X19838200D01*
M02*
